<svg width="254" height="182" viewBox="0 0 254 182" fill="none" xmlns="http://www.w3.org/2000/svg">
<g clipPath="url(#clip0_1963_26398)">
<path opacity="0.7" d="M130.717 90.245C142.286 101.302 160.503 132.693 140.822 169.803" stroke="#FFA116" stroke-width="1.35829" stroke-dasharray="3.88 3.88"/>
<path opacity="0.7" d="M50.0457 79.2112C69.7 70.1291 102.062 65.8907 128.832 88.3787" stroke="#FFA116" stroke-width="1.35829"/>
<path d="M81.2385 33.0765C82.3313 32.1119 84.0542 32.5735 84.5183 33.9554L85.7681 37.6768C85.924 38.141 86.2418 38.5335 86.6635 38.7825L90.0437 40.7788C91.2989 41.52 91.3923 43.3012 90.2215 44.1696L87.0683 46.5082C86.675 46.7999 86.4 47.2235 86.2934 47.7014L85.4395 51.5332C85.1224 52.956 83.4572 53.5952 82.2695 52.75L79.071 50.4739C78.672 50.19 78.1842 50.0592 77.6967 50.1056L73.7886 50.4775C72.3375 50.6156 71.215 49.2295 71.6518 47.8388L72.8281 44.0934C72.9748 43.6263 72.9484 43.1219 72.7537 42.6726L71.1923 39.0707C70.6125 37.7333 71.5839 36.2374 73.0416 36.223L76.9671 36.1844C77.4568 36.1796 77.9283 35.9986 78.2954 35.6745L81.2385 33.0765Z" fill="#FFD952"/>
<path d="M92.7319 29.7313C93.126 29.3834 93.7474 29.5499 93.9148 30.0482L94.3655 31.3904C94.4217 31.5578 94.5364 31.6994 94.6884 31.7892L95.9075 32.5091C96.3602 32.7765 96.3939 33.4188 95.9716 33.732L94.8345 34.5755C94.6926 34.6807 94.5934 34.8335 94.555 35.0058L94.247 36.3877C94.1326 36.9009 93.5321 37.1314 93.1037 36.8266L91.9502 36.0057C91.8063 35.9033 91.6303 35.8562 91.4545 35.8729L90.0451 36.007C89.5217 36.0568 89.1169 35.5569 89.2744 35.0553L89.6987 33.7046C89.7516 33.5361 89.742 33.3542 89.6718 33.1921L89.1087 31.8931C88.8996 31.4108 89.2499 30.8713 89.7756 30.8661L91.1914 30.8522C91.368 30.8504 91.5381 30.7851 91.6705 30.6683L92.7319 29.7313Z" fill="#FFD952"/>
<g filter="url(#filter0_dd_1963_26398)">
<path d="M38.5119 36.9395C40.4324 33.6131 44.6858 32.4734 48.0123 34.3939L49.1566 35.0545C52.1761 36.7979 53.3027 40.5998 51.7205 43.7067C51.5094 44.1212 51.6853 44.6281 52.1077 44.8228L66.5428 51.4763C74.3575 55.0783 77.6438 64.4306 73.8001 72.1294L67.5354 84.6769C62.8253 94.1109 51.1655 97.6637 41.995 92.4592L31.3472 86.4165C22.4642 81.3752 19.3881 70.0629 24.495 61.2174L38.5119 36.9395Z" fill="white"/>
<path d="M60.1643 74.2225C61.0004 72.7768 62.8489 72.2847 64.2931 73.1233C65.7373 73.9619 66.2303 75.8137 65.3942 77.2593L61.6817 83.6787C58.2566 89.6013 50.6493 91.7122 44.667 88.4064C44.6324 88.3874 41.9588 86.8786 33.1385 81.9009C27.2707 78.5896 24.8541 71.4227 27.9725 65.5689L33.7865 54.6542C36.8812 48.844 44.7453 46.1924 50.7828 48.8757L59.7925 52.8803C61.3183 53.5584 62.0074 55.3465 61.3316 56.874C60.6558 58.4015 58.871 59.09 57.3452 58.4118L48.3355 54.4073C45.1781 53.004 40.7157 54.5086 39.1189 57.5065L33.3048 68.4214C31.7867 71.2711 33.0038 74.8806 36.1016 76.6288C42.5785 80.284 47.5701 83.1008 47.5759 83.104C50.6861 84.8227 54.6739 83.7161 56.4517 80.6419L60.1643 74.2225Z" fill="#FFA116"/>
<path fill-rule="evenodd" clip-rule="evenodd" d="M46.4946 72.4569C44.8829 72.8887 43.2257 71.93 42.7931 70.3154C42.3605 68.7009 43.3163 67.042 44.928 66.6101L66.4501 60.8433C68.0618 60.4115 69.7191 61.3702 70.1517 62.9847C70.5843 64.5992 69.6285 66.2582 68.0167 66.69L46.4946 72.4569Z" fill="#B3B3B3"/>
<path fill-rule="evenodd" clip-rule="evenodd" d="M41.9416 39.3447C42.7268 37.8706 44.557 37.3142 46.0295 38.1018C47.502 38.8895 48.0591 40.723 47.274 42.197L33.305 68.4214C31.7868 71.271 33.0038 74.8805 36.1016 76.6288L47.5252 83.0758C48.9796 83.8966 49.4952 85.7422 48.677 87.198C47.8587 88.6539 46.0164 89.1687 44.562 88.3479L33.1383 81.9008C27.2707 78.5892 24.8541 71.4223 27.9727 65.5688L41.9416 39.3447Z" fill="#1A1A1A"/>
</g>
</g>
<defs>
<filter id="filter0_dd_1963_26398" x="11.8074" y="31.2327" width="71.1694" height="71.1694" filterUnits="userSpaceOnUse" color-interpolation-filters="sRGB">
<feFlood flood-opacity="0" result="BackgroundImageFix"/>
<feColorMatrix in="SourceAlpha" type="matrix" values="0 0 0 0 0 0 0 0 0 0 0 0 0 0 0 0 0 0 127 0" result="hardAlpha"/>
<feMorphology radius="1.35829" operator="erode" in="SourceAlpha" result="effect1_dropShadow_1963_26398"/>
<feOffset dy="1.35829"/>
<feGaussianBlur stdDeviation="1.35829"/>
<feComposite in2="hardAlpha" operator="out"/>
<feColorMatrix type="matrix" values="0 0 0 0 0 0 0 0 0 0 0 0 0 0 0 0 0 0 0.1 0"/>
<feBlend mode="normal" in2="BackgroundImageFix" result="effect1_dropShadow_1963_26398"/>
<feColorMatrix in="SourceAlpha" type="matrix" values="0 0 0 0 0 0 0 0 0 0 0 0 0 0 0 0 0 0 127 0" result="hardAlpha"/>
<feMorphology radius="0.679144" operator="erode" in="SourceAlpha" result="effect2_dropShadow_1963_26398"/>
<feOffset dy="2.71658"/>
<feGaussianBlur stdDeviation="2.03743"/>
<feComposite in2="hardAlpha" operator="out"/>
<feColorMatrix type="matrix" values="0 0 0 0 0 0 0 0 0 0 0 0 0 0 0 0 0 0 0.1 0"/>
<feBlend mode="normal" in2="effect1_dropShadow_1963_26398" result="effect2_dropShadow_1963_26398"/>
<feBlend mode="normal" in="SourceGraphic" in2="effect2_dropShadow_1963_26398" result="shape"/>
</filter>
<clipPath id="clip0_1963_26398">
<rect width="254" height="181.332" fill="white"/>
</clipPath>
</defs>
</svg>
